<?xml version="1.0" encoding="utf-8"?>
<!-- Generator: Adobe Illustrator 19.2.0, SVG Export Plug-In . SVG Version: 6.00 Build 0)  -->
<!DOCTYPE svg PUBLIC "-//W3C//DTD SVG 1.1//EN" "http://www.w3.org/Graphics/SVG/1.1/DTD/svg11.dtd">
<svg version="1.1" id="Layer_1" xmlns="http://www.w3.org/2000/svg" xmlns:xlink="http://www.w3.org/1999/xlink" x="0px" y="0px"
	 viewBox="0 0 123.9 10" style="enable-background:new 0 0 123.9 10;" xml:space="preserve">
<style type="text/css">
	.st0{fill:#D42027;}
	.st1{fill:#D42027;stroke:#D42027;stroke-width:0.5;stroke-miterlimit:10;}
</style>
<g>
	<path class="st0" d="M1,7.1C0.7,6.5,0.5,5.8,0.5,5S0.7,3.5,1,2.9c0.3-0.6,0.8-1.1,1.4-1.5s1.3-0.5,2.1-0.5c0.8,0,1.5,0.2,2.1,0.5
		S7.6,2.3,8,2.9C8.3,3.5,8.5,4.2,8.5,5S8.3,6.5,8,7.1C7.6,7.7,7.2,8.2,6.6,8.6S5.3,9.1,4.5,9.1C3.7,9.1,3,9,2.4,8.6S1.3,7.7,1,7.1z
		 M1.5,5c0,0.6,0.1,1.2,0.4,1.7c0.2,0.5,0.6,0.9,1,1.2c0.4,0.3,1,0.4,1.6,0.4c0.6,0,1.1-0.1,1.6-0.4c0.5-0.3,0.8-0.7,1-1.2
		c0.2-0.5,0.4-1,0.4-1.7c0-0.6-0.1-1.2-0.4-1.7C6.8,2.8,6.5,2.5,6,2.2s-1-0.4-1.6-0.4c-0.9,0-1.6,0.3-2.1,0.9C1.8,3.3,1.5,4.1,1.5,5
		z"/>
	<path class="st0" d="M10,8.6V1.7c0-0.2,0.1-0.4,0.2-0.5S10.5,1,10.7,1h4.2c0.1,0,0.2,0,0.3,0.1s0.1,0.2,0.1,0.3
		c0,0.1,0,0.2-0.1,0.3S15,1.9,14.9,1.9H11v2.6h3.8c0.1,0,0.2,0,0.3,0.1s0.1,0.2,0.1,0.3c0,0.1,0,0.2-0.1,0.3s-0.2,0.1-0.3,0.1H11
		v3.2c0,0.1,0,0.3-0.1,0.3s-0.2,0.1-0.4,0.1c-0.1,0-0.3,0-0.3-0.1S10,8.7,10,8.6z"/>
	<path class="st0" d="M16.6,8.6V1.7c0-0.2,0.1-0.4,0.2-0.5S17.1,1,17.3,1h4.2c0.1,0,0.2,0,0.3,0.1s0.1,0.2,0.1,0.3
		c0,0.1,0,0.2-0.1,0.3s-0.2,0.1-0.3,0.1h-3.9v2.6h3.8c0.1,0,0.2,0,0.3,0.1s0.1,0.2,0.1,0.3c0,0.1,0,0.2-0.1,0.3s-0.2,0.1-0.3,0.1
		h-3.8v3.2c0,0.1,0,0.3-0.1,0.3s-0.2,0.1-0.4,0.1c-0.1,0-0.3,0-0.3-0.1S16.6,8.7,16.6,8.6z"/>
	<path class="st0" d="M23.2,8.6V1.4c0-0.1,0-0.2,0.1-0.3s0.2-0.1,0.4-0.1c0.1,0,0.2,0,0.3,0.1s0.1,0.2,0.1,0.3v7.2
		c0,0.1,0,0.3-0.1,0.3s-0.2,0.1-0.4,0.1c-0.1,0-0.3,0-0.3-0.1S23.2,8.7,23.2,8.6z"/>
	<path class="st0" d="M26.1,6.7c-0.2-0.5-0.3-1.1-0.3-1.7s0.1-1.2,0.3-1.7s0.5-1,0.9-1.3s0.8-0.6,1.3-0.8s1-0.3,1.6-0.3
		c1.1,0,2,0.4,2.7,1.1c0.1,0.1,0.1,0.2,0.1,0.3c0,0.1,0,0.2-0.1,0.3c-0.1,0.1-0.2,0.1-0.3,0.1c-0.1,0-0.3-0.1-0.3-0.2
		C31.6,2.4,31.3,2.2,31,2c-0.4-0.2-0.7-0.3-1.1-0.3c-0.6,0-1.1,0.1-1.6,0.4s-0.8,0.7-1.1,1.2c-0.3,0.5-0.4,1.1-0.4,1.7
		c0,0.6,0.1,1.2,0.4,1.7c0.3,0.5,0.6,0.9,1.1,1.2c0.5,0.3,1,0.4,1.6,0.4c0.4,0,0.8-0.1,1.1-0.2c0.4-0.2,0.7-0.4,0.9-0.7
		c0.1-0.1,0.2-0.2,0.3-0.2s0.2,0,0.3,0.1s0.1,0.2,0.1,0.3c0,0.1,0,0.2-0.1,0.3c-0.7,0.8-1.6,1.1-2.7,1.1c-0.6,0-1.1-0.1-1.6-0.3
		S27.3,8.4,26.9,8C26.6,7.6,26.3,7.2,26.1,6.7z"/>
	<path class="st0" d="M34.2,8.3V1.7c0-0.2,0.1-0.4,0.2-0.5S34.7,1,34.9,1h4.2c0.1,0,0.2,0,0.3,0.1s0.1,0.2,0.1,0.3
		c0,0.1,0,0.2-0.1,0.3s-0.2,0.1-0.3,0.1h-3.9v2.6H39c0.1,0,0.2,0,0.3,0.1s0.1,0.2,0.1,0.3c0,0.1,0,0.2-0.1,0.3S39.1,5.3,39,5.3h-3.8
		v2.8h3.9c0.1,0,0.2,0,0.3,0.1s0.1,0.2,0.1,0.3c0,0.1,0,0.2-0.1,0.3S39.2,9,39.1,9h-4.2c-0.2,0-0.4-0.1-0.5-0.2S34.2,8.5,34.2,8.3z"
		/>
	<path class="st1" d="M41,8.6V1.7c0-0.2,0.1-0.4,0.2-0.5S41.5,1,41.7,1h4.2c0.1,0,0.2,0,0.3,0.1s0.1,0.2,0.1,0.3
		c0,0.1,0,0.2-0.1,0.3S46,1.9,45.9,1.9H42v2.6h3.8c0.1,0,0.2,0,0.3,0.1s0.1,0.2,0.1,0.3c0,0.1,0,0.2-0.1,0.3s-0.2,0.1-0.3,0.1H42
		v3.2c0,0.1,0,0.3-0.1,0.3s-0.2,0.1-0.4,0.1c-0.1,0-0.3,0-0.3-0.1S41,8.7,41,8.6z"/>
	<path class="st1" d="M47.8,7.1c-0.3-0.6-0.5-1.3-0.5-2.1s0.2-1.5,0.5-2.1c0.3-0.6,0.8-1.1,1.4-1.5s1.3-0.5,2.1-0.5
		c0.8,0,1.5,0.2,2.1,0.5s1.1,0.9,1.4,1.5c0.3,0.6,0.5,1.3,0.5,2.1s-0.2,1.5-0.5,2.1c-0.3,0.6-0.8,1.1-1.4,1.5S52,9.1,51.2,9.1
		c-0.8,0-1.5-0.2-2.1-0.5S48.1,7.7,47.8,7.1z M48.3,5c0,0.6,0.1,1.2,0.4,1.7c0.2,0.5,0.6,0.9,1,1.2c0.4,0.3,1,0.4,1.6,0.4
		c0.6,0,1.1-0.1,1.6-0.4c0.5-0.3,0.8-0.7,1-1.2c0.2-0.5,0.4-1,0.4-1.7c0-0.6-0.1-1.2-0.4-1.7c-0.2-0.5-0.6-0.9-1-1.2s-1-0.4-1.6-0.4
		c-0.9,0-1.6,0.3-2.1,0.9C48.6,3.3,48.3,4.1,48.3,5z"/>
	<path class="st1" d="M56.9,7.1c-0.3-0.6-0.5-1.3-0.5-2.1s0.2-1.5,0.5-2.1c0.3-0.6,0.8-1.1,1.4-1.5s1.3-0.5,2.1-0.5
		c0.8,0,1.5,0.2,2.1,0.5s1.1,0.9,1.4,1.5c0.3,0.6,0.5,1.3,0.5,2.1s-0.2,1.5-0.5,2.1c-0.3,0.6-0.8,1.1-1.4,1.5s-1.3,0.5-2.1,0.5
		c-0.8,0-1.5-0.2-2.1-0.5S57.3,7.7,56.9,7.1z M57.5,5c0,0.6,0.1,1.2,0.4,1.7c0.2,0.5,0.6,0.9,1,1.2c0.4,0.3,1,0.4,1.6,0.4
		c0.6,0,1.1-0.1,1.6-0.4c0.5-0.3,0.8-0.7,1-1.2c0.2-0.5,0.4-1,0.4-1.7c0-0.6-0.1-1.2-0.4-1.7c-0.2-0.5-0.6-0.9-1-1.2s-1-0.4-1.6-0.4
		c-0.9,0-1.6,0.3-2.1,0.9C57.8,3.3,57.5,4.1,57.5,5z"/>
	<path class="st1" d="M65,1.4c0-0.1,0-0.2,0.1-0.3S65.3,1,65.4,1h5.3c0.1,0,0.2,0,0.3,0.1s0.1,0.2,0.1,0.3c0,0.1,0,0.2-0.1,0.3
		s-0.2,0.1-0.3,0.1h-2.2v6.7c0,0.1,0,0.3-0.1,0.3s-0.2,0.1-0.4,0.1c-0.1,0-0.3,0-0.3-0.1s-0.1-0.2-0.1-0.3V1.9h-2.2
		c-0.1,0-0.2,0-0.3-0.1S65,1.6,65,1.4z"/>
	<path class="st1" d="M72.5,8.3V1.7c0-0.2,0.1-0.4,0.2-0.5S73,1,73.2,1H76c0.7,0,1.2,0.2,1.6,0.6c0.4,0.4,0.6,0.9,0.6,1.5
		c0,0.5-0.1,0.9-0.4,1.2s-0.6,0.5-1,0.6c0.4,0.1,0.8,0.3,1.1,0.7c0.3,0.4,0.5,0.8,0.5,1.3c0,0.7-0.2,1.2-0.6,1.6S76.8,9,76.1,9h-2.9
		c-0.2,0-0.4-0.1-0.5-0.2C72.5,8.6,72.5,8.5,72.5,8.3z M73.5,4.5h2.4c0.4,0,0.8-0.1,1-0.4s0.4-0.5,0.4-0.9c0-0.4-0.1-0.7-0.4-0.9
		c-0.2-0.2-0.6-0.4-1-0.4h-2.4V4.5z M73.5,8.1h2.4c0.5,0,0.8-0.1,1.1-0.4s0.4-0.6,0.4-1c0-0.4-0.1-0.7-0.4-1s-0.6-0.4-1.1-0.4h-2.4
		V8.1z"/>
	<path class="st1" d="M79.4,8.5c0-0.1,0-0.1,0-0.2l2.8-6.9c0.1-0.2,0.2-0.3,0.3-0.4s0.3-0.1,0.5-0.1c0.2,0,0.3,0,0.5,0.1
		s0.2,0.2,0.3,0.4l2.8,6.9c0,0.1,0,0.1,0,0.2c0,0.1-0.1,0.2-0.2,0.4s-0.2,0.2-0.4,0.2c-0.1,0-0.2,0-0.3-0.1s-0.2-0.1-0.2-0.2L85,7.2
		h-4l-0.6,1.5c0,0.1-0.1,0.2-0.2,0.2S80.1,9.1,80,9.1c-0.2,0-0.3-0.1-0.4-0.2S79.4,8.7,79.4,8.5z M81.3,6.3h3.4L83,2L81.3,6.3z"/>
	<path class="st1" d="M87.9,8.3V1.4c0-0.1,0-0.2,0.1-0.3s0.2-0.1,0.4-0.1c0.1,0,0.2,0,0.3,0.1s0.1,0.2,0.1,0.3v6.7h3.4
		c0.1,0,0.2,0,0.3,0.1s0.1,0.2,0.1,0.3c0,0.1,0,0.2-0.1,0.3S92.4,9,92.3,9h-3.6c-0.2,0-0.4-0.1-0.5-0.2S87.9,8.5,87.9,8.3z"/>
	<path class="st1" d="M94,8.3V1.4c0-0.1,0-0.2,0.1-0.3s0.2-0.1,0.4-0.1c0.1,0,0.2,0,0.3,0.1S95,1.3,95,1.4v6.7h3.4
		c0.1,0,0.2,0,0.3,0.1s0.1,0.2,0.1,0.3c0,0.1,0,0.2-0.1,0.3S98.5,9,98.4,9h-3.6c-0.2,0-0.4-0.1-0.5-0.2S94,8.5,94,8.3z"/>
	<path class="st0" d="M100.1,8.9c-0.1-0.1-0.2-0.3-0.2-0.4c0-0.2,0.1-0.3,0.2-0.4c0.1-0.1,0.3-0.2,0.4-0.2c0.2,0,0.3,0.1,0.4,0.2
		c0.1,0.1,0.2,0.3,0.2,0.4c0,0.2-0.1,0.3-0.2,0.4c-0.1,0.1-0.3,0.2-0.4,0.2C100.4,9.1,100.2,9.1,100.1,8.9z"/>
	<path class="st0" d="M102.5,6.1c0-0.6,0.1-1.1,0.4-1.5s0.6-0.8,1-1.1c0.4-0.3,0.9-0.4,1.5-0.4c0.8,0,1.4,0.3,1.9,0.8
		c0.1,0.1,0.1,0.2,0.1,0.3c0,0.1,0,0.2-0.1,0.3s-0.2,0.1-0.3,0.1c-0.1,0-0.2,0-0.3-0.1c-0.3-0.3-0.7-0.5-1.2-0.5
		c-0.6,0-1.1,0.2-1.5,0.6s-0.5,1-0.5,1.6s0.2,1.2,0.5,1.6c0.4,0.4,0.8,0.6,1.5,0.6c0.5,0,0.9-0.2,1.2-0.5c0.1-0.1,0.2-0.1,0.3-0.1
		c0.1,0,0.2,0,0.3,0.1s0.1,0.2,0.1,0.3c0,0.1,0,0.2-0.1,0.3c-0.5,0.5-1.1,0.8-1.9,0.8c-0.6,0-1.1-0.1-1.5-0.4
		c-0.4-0.3-0.8-0.6-1-1.1C102.6,7.2,102.5,6.7,102.5,6.1z"/>
	<path class="st0" d="M108.7,8.6V1.4c0-0.1,0-0.2,0.1-0.3s0.2-0.1,0.3-0.1c0.1,0,0.2,0,0.3,0.1s0.1,0.2,0.1,0.3v7.3
		c0,0.1,0,0.2-0.1,0.3s-0.2,0.1-0.3,0.1c-0.1,0-0.2,0-0.3-0.1S108.7,8.8,108.7,8.6z"/>
	<path class="st0" d="M111.4,7.3V3.6c0-0.1,0-0.2,0.1-0.3s0.2-0.1,0.3-0.1c0.1,0,0.2,0,0.3,0.1c0.1,0.1,0.1,0.2,0.1,0.3V7
		c0,0.5,0.1,0.8,0.3,1c0.2,0.2,0.5,0.3,1,0.3c0.3,0,0.7-0.1,1-0.3c0.3-0.2,0.6-0.4,0.7-0.6V3.6c0-0.1,0-0.2,0.1-0.3s0.2-0.1,0.3-0.1
		c0.1,0,0.2,0,0.3,0.1s0.1,0.2,0.1,0.3v5.1c0,0.1,0,0.2-0.1,0.3c-0.1,0.1-0.2,0.1-0.3,0.1c-0.1,0-0.2,0-0.3-0.1
		c-0.1-0.1-0.1-0.2-0.1-0.3V8.2c-0.2,0.3-0.5,0.5-0.9,0.7c-0.4,0.2-0.7,0.3-1.2,0.3C112,9.1,111.4,8.5,111.4,7.3z"/>
	<path class="st0" d="M118,8.6V1.4c0-0.1,0-0.2,0.1-0.3s0.2-0.1,0.3-0.1c0.1,0,0.2,0,0.3,0.1s0.1,0.2,0.1,0.3v2.7
		c0.2-0.3,0.5-0.6,0.9-0.8s0.7-0.3,1.1-0.3c0.8,0,1.4,0.3,1.9,0.8c0.5,0.6,0.7,1.3,0.7,2.2c0,0.9-0.2,1.7-0.7,2.2
		c-0.5,0.5-1.1,0.8-1.9,0.8c-0.4,0-0.8-0.1-1.1-0.3s-0.6-0.4-0.9-0.7v0.5c0,0.1,0,0.2-0.1,0.3c-0.1,0.1-0.2,0.1-0.3,0.1
		c-0.1,0-0.2,0-0.3-0.1S118,8.8,118,8.6z M118.9,7.4c0.2,0.3,0.4,0.5,0.7,0.6c0.3,0.2,0.7,0.3,1,0.3c0.6,0,1-0.2,1.4-0.6
		c0.3-0.4,0.5-1,0.5-1.6s-0.2-1.2-0.5-1.6s-0.8-0.6-1.4-0.6c-0.3,0-0.7,0.1-1,0.3c-0.3,0.2-0.6,0.4-0.7,0.7V7.4z"/>
</g>
<g>
</g>
<g>
</g>
<g>
</g>
<g>
</g>
<g>
</g>
<g>
</g>
</svg>
